<svg width="43" height="40" viewBox="0 0 43 40" fill="none" xmlns="http://www.w3.org/2000/svg">
    <path d="M31.0001 14H14" stroke="#1E2228" stroke-width="1.5" stroke-linecap="round"/>
    <path d="M29.3331 16.5001L28.8732 23.3992C28.6962 26.0541 28.6077 27.3816 27.7427 28.1908C26.8777 29.0001 25.5473 29.0001 22.8865 29.0001H22.1131C19.4523 29.0001 18.1219 29.0001 17.2569 28.1908C16.3919 27.3816 16.3034 26.0541 16.1264 23.3992L15.6665 16.5001" stroke="#1E2228" stroke-width="1.5" stroke-linecap="round"/>
    <path d="M20 19L20.5 24" stroke="#1E2228" stroke-width="1.5" stroke-linecap="round"/>
    <path d="M25 19L24.5 24" stroke="#1E2228" stroke-width="1.5" stroke-linecap="round"/>
    <path d="M17.0005 14C17.0564 14 17.0843 14 17.1096 13.9994C17.9331 13.9785 18.6595 13.4549 18.9397 12.6803C18.9483 12.6565 18.9572 12.63 18.9748 12.577L19.0719 12.2857C19.1548 12.0371 19.1962 11.9128 19.2512 11.8072C19.4705 11.3861 19.8762 11.0936 20.3451 11.0188C20.4626 11 20.5937 11 20.8557 11H24.1452C24.4073 11 24.5383 11 24.6559 11.0188C25.1247 11.0936 25.5305 11.3861 25.7498 11.8072C25.8047 11.9128 25.8462 12.0371 25.929 12.2857L26.0261 12.577C26.0438 12.6299 26.0526 12.6565 26.0613 12.6803C26.3414 13.4549 27.0679 13.9785 27.8913 13.9994C27.9167 14 27.9446 14 28.0005 14" stroke="#1E2228" stroke-width="1.5"/>
    <path d="M1 21H14M14 21L9.625 17M14 21L9.625 25" stroke="#1E2228" stroke-width="1.5" stroke-linecap="round" stroke-linejoin="round"/>
</svg>
