<svg width="40" height="40" viewBox="0 0 40 40" fill="none" xmlns="http://www.w3.org/2000/svg">
    <path d="M28.0001 14H11" stroke="#1E2228" stroke-width="1.5" stroke-linecap="round"/>
    <path d="M26.3331 16.5001L25.8732 23.3992C25.6962 26.0541 25.6077 27.3816 24.7427 28.1908C23.8777 29.0001 22.5473 29.0001 19.8865 29.0001H19.1131C16.4523 29.0001 15.1219 29.0001 14.2569 28.1908C13.3919 27.3816 13.3034 26.0541 13.1264 23.3992L12.6665 16.5001" stroke="#1E2228" stroke-width="1.5" stroke-linecap="round"/>
    <path d="M17 19L17.5 24" stroke="#1E2228" stroke-width="1.5" stroke-linecap="round"/>
    <path d="M22 19L21.5 24" stroke="#1E2228" stroke-width="1.5" stroke-linecap="round"/>
    <path d="M14.0005 14C14.0564 14 14.0843 14 14.1096 13.9994C14.9331 13.9785 15.6595 13.4549 15.9397 12.6803C15.9483 12.6565 15.9572 12.63 15.9748 12.577L16.0719 12.2857C16.1548 12.0371 16.1962 11.9128 16.2512 11.8072C16.4705 11.3861 16.8762 11.0936 17.3451 11.0188C17.4626 11 17.5937 11 17.8557 11H21.1452C21.4073 11 21.5383 11 21.6559 11.0188C22.1247 11.0936 22.5305 11.3861 22.7498 11.8072C22.8047 11.9128 22.8462 12.0371 22.929 12.2857L23.0261 12.577C23.0438 12.6299 23.0526 12.6565 23.0613 12.6803C23.3414 13.4549 24.0679 13.9785 24.8913 13.9994C24.9167 14 24.9446 14 25.0005 14" stroke="#1E2228" stroke-width="1.5"/>
    <path d="M20 21H33M33 21L28.625 17M33 21L28.625 25" stroke="#1E2228" stroke-width="1.5" stroke-linecap="round" stroke-linejoin="round"/>
</svg>
